<svg version="1.2" baseProfile="tiny-ps" xmlns="http://www.w3.org/2000/svg" viewBox="0 0 19 19" width="19" height="19">
	<title>checkmark-circled</title>
	<style>
		tspan { white-space:pre }
		.s0 { fill: #f3c23a } 
	</style>
	<path id="checkmark-circled" fill-rule="evenodd" class="s0" d="m18.71 9.32c0 5.17-4.19 9.36-9.36 9.36c-5.17 0-9.36-4.19-9.36-9.36c0-5.17 4.19-9.36 9.36-9.36c5.17 0 9.36 4.19 9.36 9.36zm-4.56-3.13c0.02-0.04 0.05-0.08 0.04-0.14c0-0.05-0.02-0.1-0.05-0.15l-1.28-1.01c-0.04-0.03-0.09-0.05-0.15-0.05c-0.05 0-0.1 0.02-0.15 0.06l-4.65 5.97c0 0-1.83-1.76-1.88-1.81c-0.05-0.05-0.12-0.14-0.22-0.14c-0.1 0-0.15 0.07-0.2 0.13c-0.04 0.04-0.69 0.73-1.02 1.07c-0.02 0.02-0.03 0.03-0.05 0.05c-0.02 0.04-0.05 0.08-0.05 0.13c0 0.05 0.02 0.1 0.05 0.13l0.06 0.06c0 0 3.24 3.12 3.3 3.17c0.05 0.05 0.12 0.12 0.21 0.12c0.09 0 0.17-0.1 0.21-0.15l5.81-7.46h0z" />
</svg>