<svg version="1.2" baseProfile="tiny-ps" xmlns="http://www.w3.org/2000/svg" viewBox="0 0 58 212" width="58" height="212">
	<title>Repeat Grid 8</title>
	<style>
		tspan { white-space:pre }
		.s0 { fill: #756a84 } 
	</style>
	<g id="Repeat Grid 8" style="opacity: .8">
		<g id="Layer">
			<path id="Ellipse 14" class="s0" d="m2 4c-1.11 0-2-0.89-2-2c0-1.11 0.89-2 2-2c1.11 0 2 0.89 2 2c0 1.11-0.89 2-2 2z" />
		</g>
		<g id="Layer">
			<path id="Ellipse 14" class="s0" d="m29 4c-1.11 0-2-0.89-2-2c0-1.11 0.89-2 2-2c1.11 0 2 0.89 2 2c0 1.11-0.89 2-2 2z" />
		</g>
		<g id="Layer">
			<path id="Ellipse 14" class="s0" d="m56 4c-1.11 0-2-0.89-2-2c0-1.11 0.89-2 2-2c1.11 0 2 0.89 2 2c0 1.11-0.89 2-2 2z" />
		</g>
		<g id="Layer">
			<path id="Ellipse 14" class="s0" d="m2 30c-1.11 0-2-0.89-2-2c0-1.11 0.89-2 2-2c1.11 0 2 0.89 2 2c0 1.11-0.89 2-2 2z" />
		</g>
		<g id="Layer">
			<path id="Ellipse 14" class="s0" d="m29 30c-1.11 0-2-0.89-2-2c0-1.11 0.89-2 2-2c1.11 0 2 0.89 2 2c0 1.11-0.89 2-2 2z" />
		</g>
		<g id="Layer">
			<path id="Ellipse 14" class="s0" d="m56 30c-1.11 0-2-0.89-2-2c0-1.11 0.89-2 2-2c1.11 0 2 0.89 2 2c0 1.11-0.89 2-2 2z" />
		</g>
		<g id="Layer">
			<path id="Ellipse 14" class="s0" d="m2 56c-1.11 0-2-0.89-2-2c0-1.11 0.89-2 2-2c1.11 0 2 0.89 2 2c0 1.11-0.89 2-2 2z" />
		</g>
		<g id="Layer">
			<path id="Ellipse 14" class="s0" d="m29 56c-1.11 0-2-0.89-2-2c0-1.11 0.89-2 2-2c1.11 0 2 0.89 2 2c0 1.11-0.89 2-2 2z" />
		</g>
		<g id="Layer">
			<path id="Ellipse 14" class="s0" d="m56 56c-1.11 0-2-0.89-2-2c0-1.11 0.89-2 2-2c1.11 0 2 0.89 2 2c0 1.11-0.89 2-2 2z" />
		</g>
		<g id="Layer">
			<path id="Ellipse 14" class="s0" d="m2 82c-1.11 0-2-0.89-2-2c0-1.11 0.89-2 2-2c1.11 0 2 0.89 2 2c0 1.11-0.89 2-2 2z" />
		</g>
		<g id="Layer">
			<path id="Ellipse 14" class="s0" d="m29 82c-1.11 0-2-0.89-2-2c0-1.11 0.89-2 2-2c1.11 0 2 0.89 2 2c0 1.11-0.89 2-2 2z" />
		</g>
		<g id="Layer">
			<path id="Ellipse 14" class="s0" d="m56 82c-1.11 0-2-0.89-2-2c0-1.11 0.89-2 2-2c1.11 0 2 0.89 2 2c0 1.11-0.89 2-2 2z" />
		</g>
		<g id="Layer">
			<path id="Ellipse 14" class="s0" d="m2 108c-1.11 0-2-0.89-2-2c0-1.11 0.89-2 2-2c1.11 0 2 0.89 2 2c0 1.11-0.89 2-2 2z" />
		</g>
		<g id="Layer">
			<path id="Ellipse 14" class="s0" d="m29 108c-1.11 0-2-0.89-2-2c0-1.11 0.89-2 2-2c1.11 0 2 0.89 2 2c0 1.11-0.89 2-2 2z" />
		</g>
		<g id="Layer">
			<path id="Ellipse 14" class="s0" d="m56 108c-1.11 0-2-0.89-2-2c0-1.11 0.89-2 2-2c1.11 0 2 0.89 2 2c0 1.11-0.89 2-2 2z" />
		</g>
		<g id="Layer">
			<path id="Ellipse 14" class="s0" d="m2 134c-1.11 0-2-0.89-2-2c0-1.11 0.89-2 2-2c1.11 0 2 0.89 2 2c0 1.11-0.89 2-2 2z" />
		</g>
		<g id="Layer">
			<path id="Ellipse 14" class="s0" d="m29 134c-1.11 0-2-0.89-2-2c0-1.11 0.89-2 2-2c1.11 0 2 0.89 2 2c0 1.11-0.89 2-2 2z" />
		</g>
		<g id="Layer">
			<path id="Ellipse 14" class="s0" d="m56 134c-1.11 0-2-0.89-2-2c0-1.11 0.89-2 2-2c1.11 0 2 0.89 2 2c0 1.11-0.89 2-2 2z" />
		</g>
		<g id="Layer">
			<path id="Ellipse 14" class="s0" d="m2 160c-1.11 0-2-0.89-2-2c0-1.11 0.89-2 2-2c1.11 0 2 0.89 2 2c0 1.11-0.89 2-2 2z" />
		</g>
		<g id="Layer">
			<path id="Ellipse 14" class="s0" d="m29 160c-1.11 0-2-0.89-2-2c0-1.11 0.89-2 2-2c1.11 0 2 0.89 2 2c0 1.11-0.89 2-2 2z" />
		</g>
		<g id="Layer">
			<path id="Ellipse 14" class="s0" d="m56 160c-1.11 0-2-0.89-2-2c0-1.11 0.89-2 2-2c1.11 0 2 0.89 2 2c0 1.11-0.89 2-2 2z" />
		</g>
		<g id="Layer">
			<path id="Ellipse 14" class="s0" d="m2 186c-1.11 0-2-0.89-2-2c0-1.11 0.89-2 2-2c1.11 0 2 0.89 2 2c0 1.11-0.89 2-2 2z" />
		</g>
		<g id="Layer">
			<path id="Ellipse 14" class="s0" d="m29 186c-1.11 0-2-0.89-2-2c0-1.11 0.89-2 2-2c1.11 0 2 0.89 2 2c0 1.11-0.89 2-2 2z" />
		</g>
		<g id="Layer">
			<path id="Ellipse 14" class="s0" d="m56 186c-1.11 0-2-0.89-2-2c0-1.11 0.89-2 2-2c1.11 0 2 0.89 2 2c0 1.11-0.89 2-2 2z" />
		</g>
		<g id="Layer">
			<path id="Ellipse 14" class="s0" d="m2 212c-1.11 0-2-0.89-2-2c0-1.11 0.89-2 2-2c1.11 0 2 0.89 2 2c0 1.11-0.89 2-2 2z" />
		</g>
		<g id="Layer">
			<path id="Ellipse 14" class="s0" d="m29 212c-1.11 0-2-0.89-2-2c0-1.11 0.89-2 2-2c1.11 0 2 0.89 2 2c0 1.11-0.89 2-2 2z" />
		</g>
		<g id="Layer">
			<path id="Ellipse 14" class="s0" d="m56 212c-1.11 0-2-0.89-2-2c0-1.11 0.89-2 2-2c1.11 0 2 0.89 2 2c0 1.11-0.89 2-2 2z" />
		</g>
	</g>
</svg>