<svg version="1.2" baseProfile="tiny-ps" xmlns="http://www.w3.org/2000/svg" viewBox="0 0 52 47" width="52" height="47">
	<title>wallet-outline</title>
	<style>
		tspan { white-space:pre }
		.s0 { fill: #f3c23a } 
	</style>
	<g id="wallet-outline">
		<path id="Path 1645" fill-rule="evenodd" class="s0" d="m7.43 9.29h37.17c4.1 0 7.43 3.33 7.43 7.43v22.3c0 4.1-3.33 7.43-7.43 7.43h-37.17c-4.1 0-7.43-3.33-7.43-7.43v-22.3c0-4.1 3.33-7.43 7.43-7.43zm37.17 33.45c2.05 0 3.72-1.67 3.72-3.72v-22.3c0-2.05-1.67-3.72-3.72-3.72h-37.17c-2.05 0-3.72 1.67-3.72 3.72v22.3c0 2.05 1.67 3.72 3.72 3.72h37.17z" />
		<path id="Path 1646" class="s0" d="m3.72 18.58h-3.72v-5.69c0-3.68 2.62-6.85 6.23-7.53c0.01 0 0.02 0 0.04-0.01l30.57-5.22c2.25-0.42 4.54 0.17 6.3 1.63c1.77 1.46 2.78 3.61 2.78 5.91l0 3.48h-3.72v-3.48c0-1.18-0.52-2.29-1.43-3.04c-0.91-0.75-2.1-1.06-3.26-0.84c-0.01 0-0.02 0-0.04 0.01l-30.57 5.22c-1.85 0.36-3.2 1.99-3.19 3.88l0 5.69z" />
		<path id="Path 1647" class="s0" d="m39.03 31.59c-2.05 0-3.72-1.66-3.72-3.72c0-2.05 1.66-3.72 3.72-3.72c2.05 0 3.72 1.66 3.72 3.72c0 2.05-1.66 3.72-3.72 3.72z" />
	</g>
</svg>