<svg version="1.2" baseProfile="tiny-ps" xmlns="http://www.w3.org/2000/svg" viewBox="0 0 49 49" width="49" height="49">
	<title>wallet-outline</title>
	<style>
		tspan { white-space:pre }
		.s0 { fill: #f3c23a } 
	</style>
	<g id="box-seam">
		<path id="Path 1654" fill-rule="evenodd" class="s0" d="m22.81 0.33c1.1-0.44 2.32-0.44 3.41 0l21.85 8.74c0.58 0.23 0.96 0.8 0.96 1.42v26.55c0 1.25-0.76 2.38-1.93 2.84l-22.02 8.81c-0.37 0.15-0.77 0.15-1.14 0l-22.02-8.81c-1.16-0.46-1.93-1.59-1.93-2.84v-26.55c0-0.63 0.38-1.19 0.96-1.42l21.85-8.74zm13.2 7.22l-18.86 7.54l7.37 2.94l18.86-7.54l-7.37-2.94l0 0zm9.96 5.21l-19.92 7.97v24.28l19.92-7.97v-24.28zm-22.99 32.25v-24.29l-19.92-7.97v24.28l19.92 7.97zm2.1-41.83c-0.37-0.15-0.77-0.15-1.14 0l-18.29 7.32l7.37 2.94l18.86-7.54l-6.8-2.72z" />
	</g>
</svg>