<svg version="1.2" baseProfile="tiny-ps" xmlns="http://www.w3.org/2000/svg" viewBox="0 0 53 53" width="53" height="53">
	<title>wallet-outline</title>
	<style>
		tspan { white-space:pre }
		.s0 { fill: #f3c23a } 
	</style>
	<g id="grid-view-line">
		<path id="Path 1648" fill-rule="evenodd" class="s0" d="m22.91 7.32v13.27c0 1.83-1.49 3.32-3.32 3.32h-13.27c-1.83 0-3.32-1.49-3.32-3.32v-13.27c0-1.83 1.49-3.32 3.32-3.32h13.27c1.83 0 3.32 1.49 3.32 3.32zm-3.32 13.27v-13.27h-13.27v13.27h13.27z" />
		<path id="Path 1649" fill-rule="evenodd" class="s0" d="m49.46 7.32v13.27c0 1.83-1.49 3.32-3.32 3.32h-13.27c-1.83 0-3.32-1.49-3.32-3.32v-13.27c0-1.83 1.49-3.32 3.32-3.32h13.27c1.83 0 3.32 1.49 3.32 3.32zm-3.32 13.27v-13.27h-13.27v13.27h13.27z" />
		<path id="Path 1650" fill-rule="evenodd" class="s0" d="m22.91 33.87v13.27c0 1.83-1.49 3.32-3.32 3.32h-13.27c-1.83 0-3.32-1.49-3.32-3.32v-13.27c0-1.83 1.49-3.32 3.32-3.32h13.27c1.83 0 3.32 1.49 3.32 3.32zm-3.32 13.27v-13.27h-13.27v13.27h13.27z" />
		<path id="Path 1651" fill-rule="evenodd" class="s0" d="m49.46 33.87v13.27c0 1.83-1.49 3.32-3.32 3.32h-13.27c-1.83 0-3.32-1.49-3.32-3.32v-13.27c0-1.83 1.49-3.32 3.32-3.32h13.27c1.83 0 3.32 1.49 3.32 3.32zm-3.32 13.27v-13.27h-13.27v13.27h13.27z" />
	</g>
</svg>