<svg version="1.2" baseProfile="tiny-ps" xmlns="http://www.w3.org/2000/svg" viewBox="0 0 96 94" width="96" height="94">
	<title>Group 2680</title>
	<style>
		tspan { white-space:pre }
		.s0 { fill: #f3c23a } 
	</style>
	<g id="Group 2682">
		<path id="Path 9551" fill-rule="evenodd" class="s0" d="m95.31 61.77l-0.66 0.46c-1.04 0.71-2.06 1.44-3.09 2.17c-2.94 2.08-5.97 4.23-9.15 6.06c-1.4 0.81-4.38-1.02-5.33-2.27c-1.96-2.63-3.82-5.37-5.63-8.03c-1.63-2.4-3.32-4.89-5.06-7.27c-0.66-0.9-2.16-1.72-3.21-1.77c-2.74-0.13-5.55-0.1-8.26-0.08c-2.38 0.02-4.83 0.05-7.25-0.04c-3.15-0.11-5.78 0.58-8.48 2.25c-4.64 2.85-4.87 3-4.03 8.04c1.78-0.33 2-0.9 3.78-5.56l0.21-0.55h0.59c0.67 0 1.35 0.01 2.04 0.01c1.56 0.02 3.18 0.04 4.78-0.03c2.54-0.13 4.08 0.7 5.48 2.96c0.54 0.86 2.06 1.38 3.53 1.88c0.56 0.19 1.12 0.38 1.63 0.59c0.67 0.27 1.38 0.46 2.09 0.66c1.17 0.32 2.39 0.65 3.45 1.31c2.33 1.44 4.62 3.03 6.83 4.56c1.61 1.12 3.23 2.24 4.87 3.31c2.48 1.62 5.86 3.85 4 8.36c-1.87 4.51-5.74 3.65-7.95 2.9c-2.04 4.11-3.66 4.91-8.01 4.05c-2.59 4.42-4.35 5.09-9.2 3.42c-1.78 3.73-4.54 5.02-8.2 3.82c0.11 0.04-0.09 0.15-0.22 0.23c-0.37 0.22-0.83 0.48-1.35 0.48l-0.1 0c-0.34-0.02-0.7-0.03-1.07-0.04c-1.51-0.04-3.22-0.09-4.23-1.04c-0.73-0.69-1.59-1.16-2.43-1.61c-0.62-0.33-1.26-0.68-1.85-1.11c-0.8-0.59-1.61-1.18-2.43-1.76c-1.96-1.42-3.99-2.88-5.85-4.46c-0.42-0.36-0.81-0.73-1.19-1.11c-0.87-0.85-1.68-1.65-2.85-2.13c-1.47-0.61-2.52-1.72-2.95-3.12c-0.42-1.38-0.2-2.87 0.6-4.08c1.29-1.96 0.92-2.85-0.66-4.19c-0.95 1.06-2 1.68-3.13 1.83c-1.53 0.23-3.14-0.4-5.05-1.91c-1.32-1.04-2.69-2.01-4.06-2.99c-1.21-0.86-2.42-1.72-3.59-2.62c-0.54-0.42-0.79-1.04-1.01-1.59c-0.08-0.19-0.15-0.38-0.24-0.55l-0.71-1.38l1.54 0.13c0.19 0.01 0.39 0.01 0.59 0c0.6 0 1.3-0.03 1.88 0.36c2.56 1.77 5.08 3.6 7.76 5.55l2.25 1.64l1-1.42c1.52-2.15 2.98-4.22 4.42-6.29c0.7-1 1.38-2.02 2.06-3.04c1.26-1.89 2.58-3.83 3.98-5.68c0.54-0.71 0.78-1.28 0.69-1.67c-0.08-0.39-0.52-0.82-1.3-1.26c-1.9-1.09-3.71-2.26-5.4-3.48c-0.55-0.39-0.79-1.01-1-1.56c-0.07-0.18-0.13-0.36-0.22-0.53l-0.32-0.63l0.56-0.43c0.25-0.19 0.51-0.38 0.77-0.57l0.47-0.34l0.49 0.31c0.69 0.44 1.4 0.86 2.1 1.28c1.55 0.93 3.14 1.9 4.64 2.96c0.38 0.27 0.75 0.56 1.11 0.86c1.33 1.07 2.43 1.96 4.09 1.57c-7.56-9.88-12.03-21.18-13.67-34.49l-0.1-0.83l0.83-0.12c9.39-1.4 19.2-3.69 27.35-11.04l0.57-0.52l0.57 0.51c6.62 5.9 15.07 9.29 27.42 10.98l0.83 0.11l-0.09 0.83c-1.49 13.5-5.82 24.8-13.25 34.5c1.29 0.42 2.16-0.25 3.43-1.34c0.48-0.41 0.95-0.81 1.45-1.13c1.37-0.87 2.75-1.74 4.35-2.75l4.87-3.06l-0.53 2.08c-0.13 0.51-0.2 0.95-0.27 1.32c-0.14 0.81-0.24 1.46-0.79 1.86c-1.84 1.33-3.74 2.49-5.7 3.66c-0.78 0.47-1.18 0.86-1.26 1.22c-0.07 0.35 0.12 0.84 0.57 1.47c3.21 4.48 6.5 9.29 10.37 15.13c0.47 0.71 0.91 1.1 1.29 1.16c0.39 0.05 0.97-0.2 1.72-0.81c2.42-1.93 4.98-3.74 7.46-5.49l0.53-0.37c0.52-0.37 1.13-0.56 1.67-0.73c0.21-0.07 0.42-0.13 0.62-0.21l0.66-0.25l1.53 2.53zm-61.05-10.73c-1.7-0.05-3.25 0.07-3.85 0.75c-2.77 3.13-5.13 6.73-7.41 10.2c-0.8 1.21-1.59 2.42-2.39 3.6c0.21 0.29 0.41 0.56 0.6 0.83c0.55 0.77 1.02 1.44 1.58 1.91l0.18 0.16c2.39 2.03 4.64 3.95 8.06 4.3l0.16-0.23l0.2 0.27c1.84 0.23 3.56 0.98 5.23 1.7c1.66 0.72 3.38 1.46 5.18 1.67c1.63 0.18 2.46 3.42 2.58 4.22c0.13 0.88-0.12 1.74-0.42 2.57l0.36 0.42l3.26 6.25c0.66 0.02 1.2-0.15 1.54-0.51c0.49-0.53 0.43-1.36 0.3-1.97c-0.21-0.9-1.02-1.78-1.88-2.7c-0.43-0.46-0.85-0.93-1.22-1.4l-0.47-0.61l1.88-1.81l2.46 1.71c1.36 0.93 2.71 1.87 4.03 2.84c2.03 1.5 2.94 1.78 3.98 0.38c0.44-0.59 0.62-1.09 0.55-1.53c-0.14-0.84-1.21-1.59-2.26-2.32c-1.47-1.03-2.95-2.01-4.42-2.99l-2.12-1.41l0.3-2.64l0.93 0.2c0.25 0.05 0.51 0.09 0.78 0.12c0.69 0.09 1.47 0.19 2.12 0.61c1.17 0.75 2.31 1.55 3.46 2.35c1.8 1.26 3.67 2.57 5.6 3.62c0.77 0.42 2.68 0.28 3.23-0.25c0.39-0.37 0.56-0.74 0.53-1.14c-0.05-0.61-0.58-1.3-1.45-1.89c-3.36-2.29-6.29-4.34-8.98-6.28c-0.52-0.38-0.88-0.87-1.22-1.34c-0.14-0.19-0.28-0.39-0.43-0.56l-0.46-0.55l1.59-1.96l1.51 0.86c0.67 0.37 1.34 0.74 1.98 1.18c2.09 1.42 4.18 2.85 6.26 4.28c1.79 1.22 3.58 2.45 5.37 3.67c0.97 0.66 1.9 1.24 2.61 1.1c0.38-0.07 0.73-0.36 1.08-0.88c0.45-0.66 0.61-1.22 0.51-1.72c-0.13-0.64-0.72-1.28-1.81-1.97c-3.31-2.09-6.47-4.3-9.95-6.77c-2.2-1.56-4.7-3.05-8.16-3.41c-2.87-0.3-5.54-2.81-6.56-3.88c-1.06-1.11-2.91-1.65-4.74-1.37c-1.52 0.24-2.7 1.02-3.23 2.12c-1.97 4.1-4.33 5.12-8.71 3.79l-0.64-0.19l0.03-0.66c0.04-1.02-0.04-2.09-0.13-3.22c-0.27-3.35-0.56-7.07 2.89-9.53zm-6.29 29.4c0.22 0.29 0.75 0.78 1.09 1.1c0.13 0.12 0.27 0.25 0.4 0.38c0.2-0.21 0.41-0.43 0.62-0.64c1.1-1.14 2.14-2.22 2.99-3.43c-0.21-0.32-0.64-0.85-1-1.3c-0.26-0.32-0.54-0.67-0.83-1.03c-0.3 0.42-0.58 0.81-0.86 1.19c-1.02 1.42-1.85 2.55-2.41 3.75zm12.36 8.66c0.23 0.38 0.9 1.04 1.24 1.23c0.48-0.18 1-0.69 1.65-1.31c0.16-0.15 0.32-0.31 0.49-0.47c-0.2-0.17-0.4-0.34-0.59-0.51c-0.33-0.28-0.75-0.65-0.99-0.81c-0.73 0.39-1.45 1.13-1.79 1.87zm-18.89-13.64c0.25 0.2 0.49 0.41 0.7 0.59c0.69 0.59 1.34 1.14 1.69 1.14h0.01c0.28 0 0.92-0.71 1.31-1.13c0.11-0.12 0.22-0.23 0.33-0.35c-0.11-0.14-0.21-0.28-0.32-0.43c-0.42-0.58-0.95-1.31-1.32-1.38c-0.31-0.04-1.08 0.58-1.62 0.99c-0.24 0.18-0.5 0.37-0.77 0.57zm12.57 9.99c0.31 0.75 0.75 1.24 1.26 1.36c0.47 0.1 1.03-0.09 1.57-0.57c1.25-1.11 2.44-2.67 3.62-4.75c0.31-0.53 0.28-1.22-0.08-1.83c-0.35-0.61-0.94-1.01-1.51-1.02h-0.01c-0.51 0-1.95 1.08-3.36 3.12c-1.3 1.89-1.66 3.28-1.51 3.68zm3.07-38.94c0.49 0.56 1.69 1.01 2.73 1.04c5.58 0.12 11.14 0.13 16.53-0.01h0c1.05-0.03 2.25-0.48 2.73-1.03c7-7.87 11.33-17.8 13.57-31.19c-7.97-1.39-17.01-3.72-24.78-9.84c-6.97 5.54-14.96 8.01-24.71 9.89c2.44 13.21 6.87 23.13 13.93 31.14z" />
		<path id="Path 9552" class="s0" d="m41.88 38.31l-7.09-10.65l4.02-2.42l4.46 5.84l16.53-11.29l2.85 2.24l-0.81 1.21c-0.12 0.18-0.23 0.39-0.35 0.6c-0.33 0.61-0.75 1.38-1.5 1.9c-4.06 2.87-8.16 5.7-12.39 8.62l-5.74 3.96z" />
	</g>
</svg>