<svg version="1.2" baseProfile="tiny-ps" xmlns="http://www.w3.org/2000/svg" viewBox="0 0 86 89" width="86" height="89">
	<title>Group 2726</title>
	<style>
		tspan { white-space:pre }
		.s0 { fill: #f3c23a } 
	</style>
	<g id="Group 2726">
		<g id="Group 2715">
			<path id="Path 9585" fill-rule="evenodd" class="s0" d="m27.78 81.01v6.48h-27.11v-40.31h27.07v4.62c0.63-0.03 1.09-0.04 1.55-0.08c7.8-0.68 15.43 0.14 22.84 2.67c5.12 1.75 9.73 4.31 12.94 9.15c0.82-0.81 1.55-1.59 2.34-2.3c1.75-1.57 3.42-3.26 5.34-4.6c3.5-2.45 7.46-1.93 10.28 1.1c2.81 3.02 3.13 7.67 0.51 10.79c-2.21 2.64-4.64 5.1-7.06 7.55c-2.05 2.08-4.08 4.22-6.36 6.03c-10.1 8.05-23.98 8.67-35.14 1.68c-2.16-1.35-4.38-2.5-7.21-2.77zm17.67-13.26c1.39 0.51 2.59 1.04 3.85 1.38c2.6 0.7 5.21 1.45 7.85 1.89c1.72 0.29 3.17-0.8 3.75-2.27c0.65-1.63 0.37-3.15-0.96-4.29c-1.49-1.27-2.99-2.57-4.68-3.55c-7.52-4.35-15.73-5.45-24.25-4.85c-1.06 0.07-2.12 0.26-3.17 0.4v19.84c0.42 0.09 0.79 0.2 1.17 0.25c2.99 0.4 5.76 1.47 8.27 3.1c5.55 3.61 11.58 4.95 18.1 4.08c4.64-0.62 8.92-2.19 12.36-5.46c3.23-3.06 6.33-6.26 9.47-9.42c0.92-0.93 1.87-1.85 2.66-2.88c1.21-1.58 1.06-3.69-0.2-5.06c-1.29-1.4-3-1.57-4.84-0.43c-0.59 0.37-1.17 0.77-1.7 1.22c-3.27 2.83-6.48 5.66-8.44 9.68c-1.22 2.51-3.47 3.92-6.26 4.17c-1.37 0.12-2.82 0.07-4.14-0.27c-3.51-0.9-6.98-2-10.56-3.05l1.72-4.48zm-40.93-16.79v32.7h19.39v-32.7h-19.39z" />
			<path id="Path 9586" fill-rule="evenodd" class="s0" d="m75.84 13.74c-0.4 7.64-6.51 13.2-14.05 12.78c-7.16-0.4-12.67-6.69-12.27-14.01c0.39-7.13 6.68-12.73 13.82-12.33c7.18 0.41 12.85 6.57 12.49 13.56zm-22.69-0.36c0 5.24 4.25 9.53 9.44 9.54c5.27 0.01 9.6-4.26 9.66-9.52c0.06-5.18-4.33-9.58-9.57-9.6c-5.29-0.01-9.53 4.25-9.53 9.57z" />
			<path id="Path 9587" fill-rule="evenodd" class="s0" d="m42.67 20.49c7.18-0.05 13.06 5.78 13.14 13.02c0.08 7.28-5.75 13.27-12.98 13.32c-7.38 0.05-13.29-5.74-13.37-13.09c-0.08-7.28 5.81-13.19 13.2-13.24zm-0.04 22.71c5.3-0.01 9.56-4.27 9.56-9.56c0-5.27-4.29-9.54-9.58-9.53c-5.24 0-9.56 4.37-9.51 9.62c0.05 5.22 4.33 9.47 9.53 9.47z" />
		</g>
		<g id="Group 2716">
			<path id="Path 9588" class="s0" d="m65.55 10.48c-0.37-0.61-1.42-1.08-2.4-1.08c-1.18 0-2.26 0.34-2.26 1.33c0 0.94 1.12 1.11 2.31 1.25c2.07 0.26 4.29 0.63 4.29 3.12c0 1.91-1.6 2.99-3.36 3.12v1.42h-1.8v-1.35c-1.59-0.14-3.06-0.87-3.73-2.43l1.67-0.71c0.38 0.91 1.65 1.49 2.83 1.49c1.28 0 2.45-0.44 2.45-1.55c0-0.94-1.18-1.28-2.5-1.43c-2.03-0.23-4.01-0.58-4.01-2.94c0-1.86 1.65-2.71 3.29-2.91v-1.23h1.8v1.23c1.2 0.19 2.31 0.64 2.95 1.94l-1.53 0.71z" />
		</g>
		<g id="Group 2717">
			<path id="Path 9589" class="s0" d="m44.85 30.74c-0.37-0.61-1.42-1.08-2.4-1.08c-1.18 0-2.26 0.34-2.26 1.33c0 0.93 1.12 1.11 2.31 1.25c2.07 0.26 4.28 0.62 4.28 3.12c0 1.92-1.6 2.99-3.36 3.12v1.42h-1.8v-1.35c-1.59-0.14-3.06-0.87-3.73-2.43l1.67-0.71c0.38 0.91 1.65 1.49 2.82 1.49c1.28 0 2.45-0.44 2.45-1.55c0-0.93-1.18-1.28-2.5-1.43c-2.03-0.23-4.01-0.58-4.01-2.94c0-1.86 1.64-2.71 3.29-2.91v-1.23h1.8v1.23c1.2 0.19 2.31 0.64 2.95 1.94l-1.53 0.71z" />
		</g>
	</g>
</svg>