<svg version="1.2" baseProfile="tiny-ps" xmlns="http://www.w3.org/2000/svg" viewBox="0 0 83 78" width="83" height="78">
	<title>Group 2723</title>
	<style>
		tspan { white-space:pre }
		.s0 { fill: #f3c23a } 
	</style>
	<g id="Group 2723">
		<path id="Path 9581" fill-rule="evenodd" class="s0" d="m41.71-0.08c9.59 0 19.18 0 28.76 0c3.95 0 6.07 1.67 7.13 5.52c1.55 5.62 3.15 11.21 4.71 16.83c0.18 0.64 0.26 1.34 0.28 2c0.05 3.07 0.06 6.14 0.07 9.21c0.01 3.32-1.88 6.04-5 7.09c-0.75 0.25-0.97 0.56-0.97 1.34c0.03 9.66 0.02 19.31 0.02 28.97c0 4.25-2.72 6.99-6.96 7c-18.7 0.01-37.4 0.01-56.1 0c-4.36 0-7.03-2.66-7.04-7c-0.01-9.59-0.02-19.18 0.01-28.76c0-0.88-0.21-1.29-1.09-1.6c-2.97-1.01-4.87-3.62-4.91-6.74c-0.04-3.31 0.06-6.62 0.12-9.93c0.01-0.47 0.15-0.94 0.27-1.4c1.64-5.87 3.28-11.75 4.93-17.61c0.86-3.07 3.26-4.9 6.48-4.91c9.76-0.01 19.52 0 29.28 0zm-0.09 4.33c-2.39 0-4.78 0-7.17 0c-7.3 0-14.61 0-21.91 0c-1.43 0-2.18 0.56-2.51 1.77c-1.22 4.5-2.46 9-3.68 13.51c-0.45 1.67-1.11 3.34-1.23 5.05c-0.22 3.02-0.11 6.07-0.11 9.11c0.01 1.78 1.22 3.05 2.99 3.11c1.7 0.05 3.41 0.06 5.12 0c1.61-0.05 2.83-1.26 2.99-2.83c0.16-1.55 0.88-2.36 2.14-2.39c1.23-0.04 2.06 0.8 2.27 2.29c0.27 1.95 1.38 2.93 3.38 2.95c1.47 0.02 2.93 0.01 4.4 0c2.18-0.01 3.34-1.05 3.57-3.22c0.11-0.98 0.59-1.66 1.56-1.92c1.41-0.39 2.57 0.47 2.77 2.04c0.26 2.07 1.39 3.08 3.48 3.09c1.43 0.01 2.87 0.01 4.3 0c1.97-0.01 3.21-1.13 3.42-3.07c0.15-1.36 0.92-2.15 2.11-2.17c1.21-0.02 2.09 0.85 2.22 2.2c0.19 1.91 1.39 3.03 3.31 3.05c1.43 0.01 2.87 0.01 4.3 0c2.17-0.02 3.24-0.97 3.55-3.13c0.19-1.34 1.01-2.14 2.19-2.12c1.19 0.01 2.07 0.92 2.19 2.26c0.17 1.85 1.36 2.96 3.24 2.99c1.47 0.02 2.93 0.01 4.4 0c2.19-0.01 3.43-1.25 3.41-3.43c-0.03-2.97-0.08-5.94-0.14-8.91c-0.01-0.4-0.09-0.81-0.2-1.2c-1.55-5.47-3.12-10.94-4.65-16.42c-0.67-2.39-0.9-2.6-3.35-2.6c-9.45 0-18.91 0-28.36 0zm24.16 60.18c0.03-0.24 0.06-0.37 0.06-0.5c0.01-7.88 0.02-15.77-0.02-23.65c0-0.48-0.49-0.96-0.63-1.21c-1.54 0.69-2.77 1.64-4.06 1.74c-4.05 0.34-8.27 1.22-11.6-1.71c-1.33 0.63-2.49 1.58-3.72 1.68c-4.12 0.34-8.4 1.31-11.79-1.67c-1.37 0.63-2.56 1.58-3.82 1.68c-4.09 0.35-8.34 1.25-11.87-1.83c-0.97 0.45-1.23 1.14-1.22 2.15c0.05 7.44 0.03 14.88 0.03 22.31c0 0.33 0 0.65 0 1h48.65zm3.07-23.47c0 0.43 0 0.83 0 1.23c0 7.68 0.01 15.36 0 23.04c0 1.63-0.43 2.06-2.07 2.06c-16.82 0-33.65 0-50.47 0c-1.64 0-2.05-0.42-2.05-2.05c0-7.58 0-15.15 0-22.73c0-0.5 0-1 0-1.56c-0.89 0-1.67 0.05-2.44-0.01c-0.77-0.06-0.99 0.22-0.99 0.99c0.02 9.69 0.01 19.38 0.02 29.07c0 1.77 0.87 2.63 2.66 2.63c18.77 0.01 37.54 0 56.31 0c1.84 0 2.62-0.8 2.62-2.62c0-9.62 0-19.25 0-28.87c0-0.33-0.03-0.66-0.05-1l-3.53-0.17z" />
		<path id="Path 9582" class="s0" d="m41.4 24.6c-9.35 0-18.69 0-28.04 0c-0.2 0-0.41 0-0.61 0c-1.23-0.03-1.82-0.5-1.83-1.44c0-0.94 0.61-1.46 1.81-1.46c3-0.01 6-0.01 9-0.01c16.03 0 32.06 0.01 48.1 0c0.86 0 1.68 0.03 1.96 1.05c0.3 1.04-0.34 1.83-1.54 1.85c-2.11 0.04-4.23 0.02-6.34 0.02c-7.5 0-15.01 0-22.51 0v-0.01z" />
		<path id="Path 9583" class="s0" d="m62.2 59.02c-0.37 0.45-0.61 1.03-0.99 1.14c-0.47 0.14-1.19 0.07-1.58-0.21c-0.81-0.6-1.48-1.4-2.2-2.12c-3.08-3.08-6.17-6.16-9.25-9.25c-0.14-0.15-0.29-0.29-0.43-0.43c-0.78-0.82-0.86-1.64-0.23-2.24c0.56-0.53 1.46-0.45 2.18 0.25c1.41 1.38 2.81 2.78 4.21 4.17c2.47 2.45 4.94 4.89 7.39 7.35c0.34 0.34 0.55 0.8 0.91 1.34z" />
		<path id="Path 9584" class="s0" d="m54.15 59.1c-0.29 0.36-0.53 0.92-0.91 1.06c-0.44 0.16-1.19 0.14-1.5-0.14c-1.87-1.74-3.67-3.56-5.45-5.4c-0.53-0.55-0.49-1.29 0.05-1.85c0.55-0.57 1.29-0.62 1.85-0.1c1.86 1.75 3.67 3.56 5.48 5.37c0.22 0.22 0.28 0.59 0.49 1.06z" />
	</g>
</svg>