<svg version="1.2" baseProfile="tiny-ps" xmlns="http://www.w3.org/2000/svg" viewBox="0 0 59 87" width="59" height="87">
	<title>Group 2680</title>
	<style>
		tspan { white-space:pre }
		.s0 { fill: #f3c23a } 
	</style>
	<g id="Group 2683">
		<path id="Path 9553" fill-rule="evenodd" class="s0" d="m51.82 16.68c0.01-0.1-0.02-0.22-0.03-0.37h-45.27c0.14 1.57 0.21 3.12 0.42 4.64c0.27 1.98 0.73 3.93 1.66 5.73c0.99 1.91 2.43 3.39 4.36 4.36c1.67 0.84 3.4 1.54 5.07 2.38c1.8 0.91 3.51 1.99 4.9 3.48c1.06 1.14 2.11 2.31 3.05 3.55c1.27 1.68 1.04 4.29-0.25 6.03c-2.3 3.12-5.2 5.47-8.74 7.05c-1.48 0.66-2.98 1.29-4.39 2.07c-2.63 1.45-4.13 3.8-4.95 6.63c-0.75 2.58-0.99 5.23-1.07 7.96h45.23c-0.11-1.49-0.1-2.96-0.35-4.39c-0.31-1.71-0.76-3.42-1.31-5.07c-0.8-2.4-2.5-4.11-4.7-5.27c-1.7-0.9-3.45-1.7-5.19-2.53c-2.2-1.04-4.14-2.43-5.8-4.2c-0.49-0.52-0.93-1.09-1.35-1.67c-0.52-0.73-0.38-1.57 0.27-2.01c0.68-0.45 1.41-0.23 1.99 0.49c1.56 1.96 3.47 3.53 5.71 4.68c2.15 1.11 4.37 2.08 6.48 3.26c2.9 1.64 4.7 4.22 5.59 7.38c0.49 1.76 0.75 3.59 1.03 5.41c0.2 1.28 0.25 2.58 0.38 3.89c1.48 0.16 2.75 0.64 3.35 2.13c0.11 0.27 0.22 0.53 0.33 0.8v5.89c-0.11 0.26-0.21 0.53-0.33 0.79c-0.65 1.42-1.85 2.01-3.33 2.11c-0.04 0.64-0.01 1.23-0.13 1.79c-0.31 1.42-1.25 2.28-2.61 2.71h-45.23c-2.27-0.66-2.91-2.34-2.68-4.53c-1.87-0.04-3.06-0.91-3.71-2.54v-6.56c0.64-1.68 1.87-2.55 3.61-2.56c0.09-0.94 0.15-1.8 0.26-2.64c0.21-1.69 0.34-3.4 0.69-5.07c0.62-2.94 1.86-5.57 4.15-7.62c1.69-1.52 3.72-2.47 5.75-3.35c3.51-1.52 6.62-3.49 8.86-6.69c0.63-0.91 0.81-1.93 0.2-2.84c-0.59-0.89-1.22-1.78-1.97-2.54c-2.29-2.35-5.23-3.7-8.17-5.01c-1.77-0.79-3.46-1.71-4.88-3.03c-3-2.79-3.96-6.49-4.46-10.36c-0.2-1.56-0.3-3.14-0.44-4.75c-1.69-0.11-2.96-0.88-3.6-2.54v-6.56c0.29-0.48 0.52-1 0.87-1.44c0.7-0.88 1.72-1.1 2.73-1.13c0.1-0.84 0.11-1.62 0.31-2.35c0.29-1.09 1.25-1.61 2.15-2.14h20.51c0.65 0.44 1.05 1.01 0.78 1.81c-0.27 0.78-0.93 0.9-1.68 0.9c-2.89-0.03-5.77-0.01-8.66-0.01c-3.22 0-6.44 0.01-9.66-0.01c-0.6 0-0.97 0.18-0.95 0.85c0.01 0.32 0 0.64 0 0.95h45.2c0.12-1.79-0.15-1.81-1.56-1.81c-5.96 0.03-11.93 0.02-17.9 0.01c-1.09 0-1.71-0.65-1.5-1.68c0.07-0.37 0.42-0.68 0.65-1.01h20.52c2.1 0.78 2.72 2.42 2.53 4.35c0.78 0.26 1.46 0.45 2.1 0.72c1.01 0.43 1.19 1.47 1.59 2.34v5.88c-0.39 1.12-0.94 2.11-2.12 2.54c-0.48 0.18-1 0.26-1.53 0.39c-0.18 1.82-0.28 3.67-0.57 5.5c-0.49 3.11-1.35 6.08-3.44 8.59c-1.85 2.23-4.35 3.4-6.89 4.49c-2.73 1.18-5.27 2.64-7.32 4.83c-0.38 0.4-0.74 0.82-1.09 1.26c-0.54 0.68-1.27 0.85-1.91 0.41c-0.59-0.41-0.76-1.47-0.28-2.09c2.26-2.85 5.07-4.97 8.4-6.42c2.36-1.03 4.79-1.97 6.64-3.91c1.54-1.61 2.4-3.58 2.83-5.68c0.45-2.18 0.6-4.42 0.88-6.63zm-0.05 65.21h-45.13c-0.14 1.74-0.09 1.8 1.62 1.8h41.92c1.57 0 1.73-0.17 1.59-1.8zm-47.39-8.97c-1.36 0-1.49 0.13-1.49 1.45c0 1.15 0 2.3 0 3.45c0 1.15 0.18 1.33 1.37 1.33h49.83c1.11 0 1.43-0.32 1.43-1.43c0-1.04-0.05-2.08 0.01-3.11c0.08-1.42-0.32-1.7-1.65-1.7c-8.23 0.03-16.47 0.02-24.71 0.02h-24.79zm49.71-59.36c1.11 0 1.43-0.32 1.43-1.44c0-1.12 0-2.24 0-3.36c0-1.2-0.21-1.42-1.4-1.42h-49.69c-0.22 0-0.45-0.02-0.67 0c-0.56 0.06-0.91 0.26-0.89 0.94c0.04 1.26 0.01 2.52 0.01 3.78c0 1.24 0.25 1.49 1.51 1.49h49.69z" />
		<path id="Path 9554" fill-rule="evenodd" class="s0" d="m48.62 68.74c-6.53-0.04-13.06-0.02-19.58-0.02h-19c-1.42 0-2.01-0.58-1.75-2c0.35-1.88 0.79-3.74 1.34-5.57c0.7-2.35 2.52-3.74 4.6-4.82c0.8-0.41 1.7-0.64 2.48-1.09c0.93-0.55 1.89-0.66 2.94-0.66c6.53 0.03 13.06 0.04 19.59-0.01c1.33-0.01 2.37 0.67 3.49 1.13c1.57 0.66 3.08 1.45 4.3 2.72c1.53 1.58 2.15 3.54 2.6 5.59c0.23 1.01 0.38 2.05 0.5 3.08c0.1 0.86-0.41 1.64-1.5 1.63zm-1.42-2.75c-0.09-0.52-0.14-1.04-0.26-1.54c-0.43-1.72-0.87-3.5-2.4-4.57c-1.2-0.84-2.61-1.38-3.88-2.11c-0.95-0.54-1.96-0.5-2.98-0.5c-5.88 0.01-11.76 0.02-17.64-0.02c-0.93-0.01-1.73 0.25-2.53 0.62c-0.32 0.15-0.66 0.26-0.98 0.42c-1.22 0.61-2.49 1.12-3.39 2.24c-1.29 1.59-1.62 3.49-2 5.45h36.08z" />
		<path id="Path 9555" fill-rule="evenodd" class="s0" d="m41.77 31.12c-3.46 1.46-6.49 3.52-9.01 6.32c-0.57 0.63-1.06 1.34-1.54 2.04c-1.07 1.56-3.02 1.65-4.06 0.1c-2.58-3.86-6.09-6.54-10.35-8.29c-1.33-0.55-1.62-0.99-1.49-2.09c0.13-1.16 0.67-1.67 1.84-1.67c4.01 0 8.01 0 12.02 0c3.95 0 7.91 0.02 11.86-0.01c1.41-0.01 1.84 0.66 2.02 1.41c0.24 1.03-0.2 1.73-1.29 2.19zm-4.49-0.83h-16.18c3.26 1.93 5.97 4.29 8.06 7.28c2.17-2.94 4.78-5.36 8.12-7.28z" />
	</g>
</svg>