<svg version="1.2" baseProfile="tiny-ps" xmlns="http://www.w3.org/2000/svg" viewBox="0 0 70 86" width="70" height="86">
	<title>Group 2727</title>
	<style>
		tspan { white-space:pre }
		.s0 { fill: #f3c23a } 
	</style>
	<g id="Group 2727">
		<path id="Path 9592" fill-rule="evenodd" class="s0" d="m4.74 52.52h2.75c0 4.51 0 8.97 0 13.43c0 4.03-0.04 8.05 0.01 12.08c0.04 3.06 1.52 4.58 4.57 4.58c16.56 0.03 33.13 0.03 49.69 0.01c3.31-0.01 4.72-1.48 4.73-4.99c0.05-9.43 0.02-18.85 0.02-28.28c0-13.36 0-26.72 0-40.08c0-5.26-1.01-6.27-6.22-6.27c-1.46 0-2.92 0-4.57 0v4.11h7.88v69.82h-53.22v-18.83l2.55-0.24v16.37h47.87v-64.19c-2.5-0.12-4.87-0.93-6.8 1.56c-0.57 0.74-2.15 0.95-3.27 0.96c-9.15 0.07-18.3 0.07-27.45 0.01c-1.05-0.01-2.55-0.12-3.06-0.78c-1.94-2.52-4.42-1.96-7.15-1.75v24.34l-2.68 0.16v-27.34h7.92v-4.12c-2.47 0-5.03-0.26-7.51 0.07c-2.43 0.32-3.34 2.22-3.32 4.63c0.03 7.41 0.01 14.81 0.01 22.44l-2.38 0.27c-0.15-0.37-0.32-0.62-0.32-0.87c-0.03-7.5-0.09-15.01-0.01-22.51c0.04-4.09 2.86-6.83 7.01-6.85c16.84-0.05 33.68-0.05 50.51 0c3.92 0.01 6.52 2.52 6.9 6.39c0.08 0.82 0.07 1.65 0.07 2.47c0 22.42 0.01 44.84 0 67.26c0 6.81-2.2 8.98-9.07 8.98c-15.74 0-31.48 0.01-47.22 0c-5.71 0-8.23-2.49-8.24-8.15c-0.01-8.14 0-16.27 0-24.71zm47.84-49.34h-31.36c0 1.07 0 1.97 0 2.87c-0.01 3.81-0.01 3.82 3.67 3.82c7.39 0 14.77 0 22.16 0c6.18 0 6.18 0 5.53-6.69z" />
		<path id="Path 9593" fill-rule="evenodd" class="s0" d="m26.98 60.86c-4.54-1.36-8.63-2.29-11.83-5.84c-4.76-5.28-10.02-10.09-15.16-15.19l6.4-6.08c1.49 1.75 3.05 3.77 4.8 5.6c2.97 3.1 5.86 6.33 9.15 9.07c3.84 3.2 5.34 7.44 6.64 12.45zm-20.33-18.59l11.93 11.68l1.29-1.22l-11.82-11.89l-1.4 1.44z" />
		<path id="Path 9594" class="s0" d="m36.61 20.85c4.75 0 9.49-0.05 14.23 0.05c0.65 0.01 1.29 0.78 1.94 1.2c-0.65 0.5-1.3 1.43-1.96 1.43c-9.67 0.09-19.34 0.09-29.01 0.01c-0.65-0.01-1.29-0.78-1.94-1.2c0.66-0.5 1.3-1.41 1.97-1.43c4.92-0.12 9.85-0.07 14.78-0.07z" />
		<path id="Path 9595" class="s0" d="m51.3 34.59v2.56h-31.13l-0.6-0.6c0.59-0.65 1.18-1.87 1.78-1.88c9.95-0.12 19.9-0.08 29.95-0.08z" />
		<path id="Path 9596" class="s0" d="m44.41 27.92v2.4h-24.34l-0.26-2.4h24.6z" />
	</g>
</svg>