<svg version="1.2" baseProfile="tiny-ps" xmlns="http://www.w3.org/2000/svg" viewBox="0 0 90 83" width="90" height="83">
	<title>Group 2680</title>
	<style>
		tspan { white-space:pre }
		.s0 { fill: #f3c139 } 
	</style>
	<g id="Group 2681">
		<path id="Path 9547" fill-rule="evenodd" class="s0" d="m82.52 23.03c4.11 0 7.44 3.34 7.44 7.44v44.65c0 4.11-3.34 7.44-7.44 7.44h-74.42c-4.11 0-7.44-3.34-7.44-7.44v-44.65c0-0.36 0-0.71 0.02-1.06c0.3-10.57 6.37-13.52 6.63-13.64c0.58-0.28 1.26-0.22 1.8 0.13c0.54 0.35 0.86 0.96 0.84 1.6c-0.02 0.86 0.21 3.39 1.48 4.68c0.14 0.15 0.3 0.28 0.46 0.39c0.16-2.39 0.61-5.37 1.66-8.45c1.66-4.85 5.38-9.61 10.2-13.06c0.57-0.4 1.31-0.46 1.94-0.14c0.62 0.32 1.01 0.96 1.01 1.66c0 4.89 2.17 7.76 4.68 11.08c1.94 2.57 4.05 5.4 5.31 9.38h45.83zm-63.26 26.05c-6.11 0-11.49-3-14.88-7.56v22.63c7.73 0.87 13.82 6.97 14.7 14.7h52.47c0.87-7.73 6.97-13.83 14.7-14.7v-22.7c-7.73-0.87-13.82-6.96-14.7-14.7h-34.01c0.09 0.58 0.18 1.16 0.23 1.79l0.03 0.47c0.04 0.47 0.07 0.95 0.07 1.46c0 10.26-8.35 18.61-18.61 18.61zm63.26 29.77c2.05 0 3.72-1.67 3.72-3.72v-7.25c-5.68 0.82-10.15 5.29-10.97 10.98h7.25zm-78.12-49.27c-0.02 0.34-0.02 0.62-0.02 0.89c0 8.21 6.68 14.89 14.88 14.89c8.21 0 14.89-6.68 14.89-14.89c0-0.41-0.03-0.8-0.06-1.18l-0.04-0.49c-0.46-6.06-2.98-9.38-5.64-12.91c-2.1-2.78-4.25-5.63-5.08-9.71c-2.93 2.69-5.14 5.9-6.25 9.13c-1.28 3.71-1.54 7.26-1.54 9.58c0 1.03-0.83 1.86-1.86 1.86c-1.96 0-3.66-0.69-4.92-1.99c-1.02-1.05-1.63-2.36-2-3.58c-1.1 1.56-2.24 4.18-2.36 8.4zm81.84 0.89c0-2.05-1.67-3.72-3.72-3.72h-7.25c0.82 5.68 5.29 10.15 10.97 10.98v-7.26zm-81.86 44.65c0 2.05 1.67 3.72 3.72 3.72h7.25c-0.82-5.68-5.29-10.15-10.97-10.98v7.25z" />
		<path id="Path 9548" class="s0" d="m46.24 60.24c1.54 0 2.79-1.25 2.79-2.79c0-1.54-1.25-2.79-2.79-2.79h-1.86c-3.59 0-6.51-2.92-6.51-6.51c0-3.27 2.44-5.96 5.58-6.42v-1.96c0-1.03 0.83-1.86 1.86-1.86c1.03 0 1.86 0.83 1.86 1.86v1.86h3.72c1.03 0 1.86 0.83 1.86 1.86c0 1.03-0.83 1.86-1.86 1.86h-6.51c-1.54 0-2.79 1.25-2.79 2.79c0 1.54 1.25 2.79 2.79 2.79h1.86c3.59 0 6.51 2.92 6.51 6.51c0 3.27-2.44 5.96-5.58 6.42v1.95c0 1.03-0.83 1.86-1.86 1.86c-1.03 0-1.86-0.83-1.86-1.86v-1.86h-3.72c-1.03 0-1.86-0.83-1.86-1.86c0-1.03 0.83-1.86 1.86-1.86h6.51v0z" />
		<path id="Path 9549" class="s0" d="m22.99 49.07c2.05 0 3.72 1.67 3.72 3.72c0 2.06-1.67 3.72-3.72 3.72c-2.06 0-3.72-1.66-3.72-3.72c0-2.06 1.67-3.72 3.72-3.72v0z" />
		<path id="Path 9550" class="s0" d="m67.64 49.07c2.06 0 3.72 1.67 3.72 3.72c0 2.06-1.67 3.72-3.72 3.72c-2.05 0-3.72-1.66-3.72-3.72c0-2.06 1.67-3.72 3.72-3.72v0z" />
	</g>
</svg>