<svg version="1.2" baseProfile="tiny-ps" xmlns="http://www.w3.org/2000/svg" viewBox="0 0 70 81" width="70" height="81">
	<title>Group 2680</title>
	<style>
		tspan { white-space:pre }
		.s0 { fill: #f3c23a } 
	</style>
	<g id="Group 2680">
		<path id="Path 9537" fill-rule="evenodd" class="s0" d="m65.61 52.93v-10.55c0.03-3.72-3.01-7.06-6.74-7.45c-1-0.12-2.07-0.21-3.1-0.21h-21.96c-7.33 0-14.63 0-21.96 0.03c-4.08 0-7.09 2.28-8.13 6.06c-0.21 0.77-0.3 1.63-0.3 2.69c-0.03 8.22-0.03 16.46 0 24.68c0 1.89 0.27 4.64 2.63 6.71c1.57 1.39 3.22 2.04 5.05 2.04h47.12c3.78 0 7.24-3.4 7.42-7.24c0.06-1.66 0.35-2.07 1.74-2.42h0.03c0.68 0 1.42 0.41 1.6 0.77c0.09 0.12 0.18 0.27 0.27 0.41v2.16l-0.09 0.09l-0.03 0.38c-0.86 4.49-3.37 7.39-7.66 8.96c-0.44 0.15-0.89 0.27-1.36 0.38l-0.56 0.18h-49.48l-0.09-0.12l-0.77-0.03c-3.52-0.56-6.24-2.54-8.1-6.03c-0.38-0.71-0.62-1.54-0.92-2.39c-0.09-0.35-0.21-0.68-0.33-1.03v-29.5l0.09-0.95c0.41-2.01 1.33-3.93 2.75-5.59c0.98-1.09 2.16-1.98 3.61-2.72c1.6-0.8 3.49-1.15 5.91-1.15h4.05l0.18-1.3c0.03-0.3 0.06-0.47 0.06-0.62l0.03-2.78c0.03-3.1 0.03-6.21 0.15-9.31c0.06-1.18 0.3-2.48 0.71-3.9c1-3.31 2.87-6.09 5.59-8.28c2.69-2.16 5.53-3.43 8.72-3.87c0.59-0.09 2.13-0.33 2.13-0.33h1.68l0.3 0.09c0.56 0.09 1.12 0.18 1.68 0.24c1.74 0.21 3.52 0.77 5.26 1.66c2.72 1.39 4.82 3.16 6.41 5.41c2.19 3.07 3.25 6.15 3.28 9.37c0.03 2.48 0 4.97 0 7.48v6.15l3.1-0.03c0.24 0 0.44 0 0.68 0.03l1.03 0.06c1 0.03 1.95 0.09 2.81 0.27c3.52 0.65 6.12 2.57 7.74 5.62c0.41 0.8 0.71 1.71 1.03 2.66c0.12 0.38 0.27 0.77 0.38 1.15v14.48c-0.41 0.62-0.68 0.92-1.09 1.01c-0.24 0.03-0.44 0.06-0.68 0.06c-1.57 0-1.68-1.12-1.74-1.48c-0.06-0.65-0.15-1.33-0.15-1.98zm-16.79-34.44c0-0.86-0.06-1.68-0.18-2.51c-0.53-3.4-2.25-6.24-5.11-8.45c-2.66-2.04-5.59-3.07-8.72-3.07c-0.95 0-1.92 0.09-2.9 0.27c-4.46 0.89-7.86 3.37-10.08 7.42c-1.06 1.86-1.6 4.08-1.63 6.71c-0.03 2.31-0.03 4.61-0.03 6.92l0.03 5.26h28.61v-12.53z" />
		<path id="Path 9538" fill-rule="evenodd" class="s0" d="m65.61 52.93v-10.55c0.03-3.72-3.01-7.06-6.74-7.45c-1-0.12-2.07-0.21-3.1-0.21h-21.96c-7.33 0-14.63 0-21.96 0.03c-4.08 0-7.09 2.28-8.13 6.06c-0.21 0.77-0.3 1.63-0.3 2.69c-0.03 8.22-0.03 16.46 0 24.68c0 1.89 0.27 4.64 2.63 6.71c1.57 1.39 3.22 2.04 5.05 2.04h47.12c3.78 0 7.24-3.4 7.42-7.24c0.06-1.66 0.35-2.07 1.74-2.42h0.03c0.68 0 1.42 0.41 1.6 0.77c0.09 0.12 0.18 0.27 0.27 0.41v2.16l-0.09 0.09l-0.03 0.38c-0.86 4.49-3.37 7.39-7.66 8.96c-0.44 0.15-0.89 0.27-1.36 0.38l-0.56 0.18h-49.48l-0.09-0.12l-0.77-0.03c-3.52-0.56-6.24-2.54-8.1-6.03c-0.38-0.71-0.62-1.54-0.92-2.39c-0.09-0.35-0.21-0.68-0.33-1.03v-29.5l0.09-0.95c0.41-2.01 1.33-3.93 2.75-5.59c0.98-1.09 2.16-1.98 3.61-2.72c1.6-0.8 3.49-1.15 5.91-1.15h4.05l0.18-1.3c0.03-0.3 0.06-0.47 0.06-0.62l0.03-2.78c0.03-3.1 0.03-6.21 0.15-9.31c0.06-1.18 0.3-2.48 0.71-3.9c1-3.31 2.87-6.09 5.59-8.28c2.69-2.16 5.53-3.43 8.72-3.87c0.59-0.09 2.13-0.33 2.13-0.33h1.68l0.3 0.09c0.56 0.09 1.12 0.18 1.68 0.24c1.74 0.21 3.52 0.77 5.26 1.66c2.72 1.39 4.82 3.16 6.41 5.41c2.19 3.07 3.25 6.15 3.28 9.37c0.03 2.48 0 4.97 0 7.48v6.15l3.1-0.03c0.24 0 0.44 0 0.68 0.03l1.03 0.06c1 0.03 1.95 0.09 2.81 0.27c3.52 0.65 6.12 2.57 7.74 5.62c0.41 0.8 0.71 1.71 1.03 2.66c0.12 0.38 0.27 0.77 0.38 1.15v14.48c-0.41 0.62-0.68 0.92-1.09 1.01c-0.24 0.03-0.44 0.06-0.68 0.06c-1.57 0-1.68-1.12-1.74-1.48c-0.06-0.65-0.15-1.33-0.15-1.98zm-16.79-34.44c0-0.86-0.06-1.68-0.18-2.51c-0.53-3.4-2.25-6.24-5.11-8.45c-2.66-2.04-5.59-3.07-8.72-3.07c-0.95 0-1.92 0.09-2.9 0.27c-4.46 0.89-7.86 3.37-10.08 7.42c-1.06 1.86-1.6 4.08-1.63 6.71c-0.03 2.31-0.03 4.61-0.03 6.92l0.03 5.26h28.61v-12.53z" />
		<path id="Path 9539" class="s0" d="m18.29 55.5c0.03 0.35-0.15 0.68-0.33 0.89c-0.35 0.38-0.92 0.68-1.39 0.68l-0.06-0.03c-1.45-0.06-1.83-1.03-1.89-1.86c-0.03-0.35 0.18-0.8 0.5-1.15c0.38-0.41 0.86-0.65 1.27-0.65c0.5 0.03 1.15 0.21 1.54 0.62c0.27 0.3 0.35 0.68 0.33 1.15v0.18l0.03 0.18z" />
		<path id="Path 9540" class="s0" d="m18.29 55.5c0.03 0.35-0.15 0.68-0.33 0.89c-0.35 0.38-0.92 0.68-1.39 0.68l-0.06-0.03c-1.45-0.06-1.83-1.03-1.89-1.86c-0.03-0.35 0.18-0.8 0.5-1.15c0.38-0.41 0.86-0.65 1.27-0.65c0.5 0.03 1.15 0.21 1.54 0.62c0.27 0.3 0.35 0.68 0.33 1.15v0.18l0.03 0.18z" />
		<path id="Path 9541" class="s0" d="m30.35 55.33l0.03 0.18c0.06 0.35-0.12 0.68-0.3 0.89c-0.35 0.38-0.92 0.68-1.39 0.68h-0.06c-0.53-0.03-1.8-0.27-1.86-1.92c-0.03-0.38 0.18-0.83 0.53-1.18c0.35-0.38 0.8-0.59 1.21-0.59c0.5 0.03 1.15 0.21 1.54 0.62c0.24 0.3 0.35 0.68 0.33 1.18l-0.03 0.15z" />
		<path id="Path 9542" class="s0" d="m30.35 55.33l0.03 0.18c0.06 0.35-0.12 0.68-0.3 0.89c-0.35 0.38-0.92 0.68-1.39 0.68h-0.06c-0.53-0.03-1.8-0.27-1.86-1.92c-0.03-0.38 0.18-0.83 0.53-1.18c0.35-0.38 0.8-0.59 1.21-0.59c0.5 0.03 1.15 0.21 1.54 0.62c0.24 0.3 0.35 0.68 0.33 1.18l-0.03 0.15z" />
		<path id="Path 9543" class="s0" d="m42.47 55.15c0 1.33-0.5 1.86-1.74 1.86c-1.09 0-1.71-0.33-1.74-1.95c-0.03-0.47 0.12-0.83 0.38-1.12c0.33-0.33 0.86-0.53 1.36-0.53c0.53 0 1.06 0.21 1.39 0.56c0.3 0.3 0.41 0.68 0.35 1.18z" />
		<path id="Path 9544" class="s0" d="m42.47 55.15c0 1.33-0.5 1.86-1.74 1.86c-1.09 0-1.71-0.33-1.74-1.95c-0.03-0.47 0.12-0.83 0.38-1.12c0.33-0.33 0.86-0.53 1.36-0.53c0.53 0 1.06 0.21 1.39 0.56c0.3 0.3 0.41 0.68 0.35 1.18z" />
		<path id="Path 9545" class="s0" d="m54.74 55.36l0.03 0.15c0.06 0.38-0.15 0.68-0.3 0.89c-0.35 0.38-0.89 0.65-1.36 0.65h-0.06c-1.15-0.06-1.77-0.41-1.8-2.01c-0.03-1.27 1.09-1.63 1.74-1.63c0.41 0 1 0.15 1.39 0.56c0.3 0.3 0.41 0.71 0.38 1.21l-0.03 0.18z" />
		<path id="Path 9546" class="s0" d="m54.74 55.36l0.03 0.15c0.06 0.38-0.15 0.68-0.3 0.89c-0.35 0.38-0.89 0.65-1.36 0.65h-0.06c-1.15-0.06-1.77-0.41-1.8-2.01c-0.03-1.27 1.09-1.63 1.74-1.63c0.41 0 1 0.15 1.39 0.56c0.3 0.3 0.41 0.71 0.38 1.21l-0.03 0.18z" />
	</g>
</svg>